<svg xmlns="http://www.w3.org/2000/svg" xmlns:xlink="http://www.w3.org/1999/xlink" width="38.363" height="39.472" viewBox="0 0 38.363 39.472">
  <defs>
    <clipPath id="clip-path">
      <path id="Rectangle_1153" data-name="Rectangle 1153" d="M14.173,0h24.19a0,0,0,0,1,0,0V33.8a5.669,5.669,0,0,1-5.669,5.669H0a0,0,0,0,1,0,0v-25.3A14.173,14.173,0,0,1,14.173,0Z" fill="none"/>
    </clipPath>
  </defs>
  <g id="Group_189" data-name="Group 189" clip-path="url(#clip-path)">
    <g id="Group_188" data-name="Group 188" transform="translate(-0.27 0)">
      <path id="Path_7590" data-name="Path 7590" d="M81.794,198.148s21.873-10.775,29.636.7v-9.418h0V228.9H81.644c-.016-.028-.093-.613,0-10.6.1-10.956,23.037-12.638,23.037-12.638,0-12.773-22.916-1.3-22.916-1.3Zm22.866,24.86V212.176s-13.531,0-13.531,8.546C91.13,227.071,99.541,228.338,104.661,223.008Z" transform="translate(-72.527 -189.425)" fill="none"/>
      <path id="Path_7591" data-name="Path 7591" d="M77.747,204.358s22.916-11.47,22.916,1.3c0,0-22.936,1.683-23.037,12.638-.093,9.985-.016,10.569,0,10.6H68.508V189.425h38.9v9.418c-7.763-11.47-29.636-.7-29.636-.7Z" transform="translate(-68.508 -189.425)" fill="#81c99a"/>
      <path id="Path_7592" data-name="Path 7592" d="M108.884,222.256v10.832c-5.12,5.33-13.531,4.063-13.531-2.287C95.353,222.256,108.884,222.256,108.884,222.256Z" transform="translate(-76.75 -199.505)" fill="#81c99a"/>
    </g>
  </g>
</svg>
