<svg xmlns="http://www.w3.org/2000/svg" xmlns:xlink="http://www.w3.org/1999/xlink" width="38.363" height="39.471" viewBox="0 0 38.363 39.471">
  <defs>
    <clipPath id="clip-path">
      <path id="Rectangle_1152" data-name="Rectangle 1152" d="M14.173,0h24.19a0,0,0,0,1,0,0V33.8a5.669,5.669,0,0,1-5.669,5.669H0a0,0,0,0,1,0,0v-25.3A14.173,14.173,0,0,1,14.173,0Z" fill="none"/>
    </clipPath>
  </defs>
  <g id="Group_231" data-name="Group 231" transform="translate(-4 0)">
    <g id="Group_186" data-name="Group 186" transform="translate(4 0)" clip-path="url(#clip-path)">
      <g id="Group_185" data-name="Group 185" transform="translate(-0.27 0.092)">
        <path id="Path_7587" data-name="Path 7587" d="M81.794,134.351s21.873-10.775,29.636.7v-9.417h0V165.1H81.644c-.016-.028-.093-.613,0-10.6.1-10.956,23.037-12.638,23.037-12.638,0-12.773-22.916-1.3-22.916-1.3Zm22.866,24.861V148.38s-13.531,0-13.531,8.546C91.13,163.275,99.541,164.542,104.661,159.212Z" transform="translate(-72.527 -125.629)" fill="none"/>
        <path id="Path_7588" data-name="Path 7588" d="M77.747,140.562s22.916-11.47,22.916,1.3c0,0-22.936,1.682-23.037,12.638-.093,9.986-.016,10.57,0,10.6H68.508V125.629h38.9v9.417c-7.763-11.47-29.636-.7-29.636-.7Z" transform="translate(-68.508 -125.629)" fill="#f1a307"/>
        <path id="Path_7589" data-name="Path 7589" d="M108.884,158.46v10.832c-5.12,5.33-13.531,4.063-13.531-2.287C95.353,158.46,108.884,158.46,108.884,158.46Z" transform="translate(-76.75 -135.709)" fill="#f1a307"/>
      </g>
    </g>
  </g>
</svg>
