<svg xmlns="http://www.w3.org/2000/svg" width="252.9" height="95.85" viewBox="0 0 252.9 95.85">
  <g id="Group_237" data-name="Group 237" transform="translate(23045.397 3529.744)">
    <path id="Path_6607" data-name="Path 6607" d="M-501.089,369.257a.633.633,0,0,0-1.193-.225c-.215.415-.4.833-.583,1.25a4.116,4.116,0,0,0-1.028,1.248.584.584,0,0,0,.158.714c-.143.981-.267,1.964-.435,2.94a.878.878,0,0,0,.109.576c0,.217-.022.425,0,.647a.908.908,0,0,0,1.791.084c.039-.269.044-.541.081-.81a5.867,5.867,0,0,0,1.609-1.925,10.941,10.941,0,0,0,.526-3.422A.937.937,0,0,0-501.089,369.257Z" transform="translate(-22541.215 -3871.075)"/>
    <path id="Path_6610" data-name="Path 6610" d="M-450.427,392.8c2.313-3.355,2.187-6.99-3.43-9.3a4.821,4.821,0,0,0-.927-.257,27.262,27.262,0,0,0,.944-3.459,1.753,1.753,0,0,0,.158-.783c.007-.047.02-.1.027-.146a1.839,1.839,0,0,0-3.061-1.608,20.055,20.055,0,0,0-4.89,1.048,8.265,8.265,0,0,0-2.955.692,3.742,3.742,0,0,0-2.276-1.319c-.329-.059-.605-.044-.917-.082a1.57,1.57,0,0,0-1.623-.269,15,15,0,0,0-.037-1.794,1.883,1.883,0,0,0-2.011-1.687,11.962,11.962,0,0,0-4.272,1.1c-.178-.054-.326-.128-.516-.173a7.1,7.1,0,0,0-3.086-.037,1.655,1.655,0,0,0-1.243.069,21.641,21.641,0,0,0-2.55,1.539c-4.514,2.829-8.673,8.549-11.111,13.209-.084.141-.183.269-.264.413a1.6,1.6,0,0,0-.062.25A26.525,26.525,0,0,0-496,393.667a2.966,2.966,0,0,0-1.018.638c-6.928,7.012,1.888,9.209,10.039,8.668a14.69,14.69,0,0,0,7.647.744,8.18,8.18,0,0,0,.751,1.381c1.942,2.851,7.575,3.321,10.273,1.542a14.156,14.156,0,0,0,1.2-.9c6.955.553,13.372-4.443,17.973-9.461C-447.986,395.014-448.992,393.178-450.427,392.8Zm-4.334-.19a21.5,21.5,0,0,0-5.332,1.482,22.948,22.948,0,0,0,4.865-5.095,9.778,9.778,0,0,1,.583,3.481C-454.68,392.521-454.726,392.561-454.761,392.605Z" transform="translate(-22534.359 -3863.504)" fill="#b3d1bd"/>
    <path id="Path_6615" data-name="Path 6615" d="M-453.547,365.8c1.608.136,3.215.156,4.828.188l.237.01a7.462,7.462,0,0,0,1.129,3.568.716.716,0,0,0,1.295-.445,23.513,23.513,0,0,0-.462-3.059,13.979,13.979,0,0,0,3.133-.19.847.847,0,0,0,.091-1.67,18.841,18.841,0,0,0-3.5-.306c-.1-1.559-.106-3.125-.2-4.682a.6.6,0,0,0-1.2.059c-.072,1.391-.272,3.009-.326,4.623-1.692.064-3.387.225-4.929.351C-454.316,364.322-454.459,365.73-453.547,365.8Z" transform="translate(-22467.654 -3885.805)"/>
    <path id="Path_6616" data-name="Path 6616" d="M-448.058,370.989a18.19,18.19,0,0,0,5.945,1.379,31.4,31.4,0,0,0-.771,7.215c.025,1.206,1.811,1,1.838-.158a39.857,39.857,0,0,1,.87-6.963,32.868,32.868,0,0,0,4.917-.329c.976-.141,1.146-1.653.084-1.786a35.55,35.55,0,0,0-4.5-.21c.541-2.335,1.147-4.662,1.651-7.042.146-.692-.956-1.114-1.2-.415-.852,2.419-1.693,4.917-2.36,7.454a33.964,33.964,0,0,1-6.054-.363A.653.653,0,0,0-448.058,370.989Z" transform="translate(-22459.193 -3880.427)"/>
    <path id="Path_6617" data-name="Path 6617" d="M-441.233,375.574c-2.051.074-4.1.519-6.155.672-.1.007-.2.01-.292.017a15.508,15.508,0,0,1,.432-3.864.566.566,0,0,0-1.053-.376,11.528,11.528,0,0,0-1.159,4.326v.02a28.76,28.76,0,0,0-4.272.455c-.447.091-.361.741.03.842a21.484,21.484,0,0,0,4.094.591,12.2,12.2,0,0,0,.166,3.412c.21.907,1.482.61,1.665-.138a11.2,11.2,0,0,0,.121-3.234,22.369,22.369,0,0,0,6.775-1.09A.846.846,0,0,0-441.233,375.574Z" transform="translate(-22467.453 -3866.587)"/>
    <path id="Path_6618" data-name="Path 6618" d="M-435.78,377.68a17.554,17.554,0,0,0-4.994,1.211c-.054.022-.074.077-.116.114,1.651-.037,3.3-.072,4.922-.114,1.863-.049,3.738-.121,5.606-.18a4.232,4.232,0,0,0,.847-.469.568.568,0,0,0-.19-1.02,10.285,10.285,0,0,0-3.931.146c0-.124-.012-.25-.015-.373-.692.03-1.386.059-2.081.077C-435.748,377.272-435.761,377.475-435.78,377.68Z" transform="translate(-22448.125 -3858.847)"/>
    <path id="Path_6619" data-name="Path 6619" d="M-459.906,390.7a23.434,23.434,0,0,0,.084-2.671.654.654,0,0,0-1.287-.1c-.193.875-.346,1.754-.482,2.639a14.108,14.108,0,0,0-3.185.3c-.625.138-.363.986.18,1.023.941.062,1.865.166,2.787.3-.054.437-.121.872-.171,1.312a9.61,9.61,0,0,0,.141,4.652c.166.405.848.581,1.038.082.618-1.608.474-3.4.652-5.107.022-.208.039-.41.062-.618,1.28.331,2.453,1.033,3.785,1.07a.567.567,0,0,0,.445-.872A6.1,6.1,0,0,0-459.906,390.7Z" transform="translate(-22483.791 -3843.501)"/>
    <path id="Path_6620" data-name="Path 6620" d="M-434.091,367.353a29.538,29.538,0,0,0,6.656.022,16.9,16.9,0,0,0,.4,6,.588.588,0,0,0,1.124-.057c.638-1.912.39-3.929.366-5.93l0-.178c2.473-.2,5.248-.054,7.533-.914a.578.578,0,0,0,.082-1.055c-2.266-.919-4.756-.341-7.136-.077-.171.017-.339.03-.506.047-.03-2.318-.067-4.633-.18-6.948-.047-.959-1.411-.818-1.453.091-.114,2.342-.151,4.685-.18,7.027-2.2.208-4.391.376-6.609.413A.788.788,0,0,0-434.091,367.353Z" transform="translate(-22439.033 -3887.354)"/>
    <path id="Path_6621" data-name="Path 6621" d="M-419.615,387.891c-.069,1.013,1.384,1.633,1.811.556a19.148,19.148,0,0,0,.793-2.31c-.805.242-1.611.477-2.419.7A7.655,7.655,0,0,0-419.615,387.891Z" transform="translate(-22416.836 -3845.398)"/>
    <path id="Path_6622" data-name="Path 6622" d="M-408.787,377.491c0-.067-.054-.111-.072-.173-.012-.546-.032-1.087-.039-1.633-.012-.981-1.51-.865-1.512.1,0,.326-.01.652-.012.976-.081.062-.183.084-.242.178a4.22,4.22,0,0,0-.2.378,1.072,1.072,0,0,0-1.475.625c1.181.059,2.362.124,3.543.21C-408.789,377.931-408.775,377.716-408.787,377.491Z" transform="translate(-22406.127 -3861.774)"/>
    <path id="Path_6623" data-name="Path 6623" d="M-410.059,383.86a3.147,3.147,0,0,0-1.253,1.507c-.086.059-.19.087-.257.185a4.452,4.452,0,0,0-.759,1.935,8.319,8.319,0,0,0-.467,1.69,8.715,8.715,0,0,0,.455,3.353c.269,1.06,1.71.662,1.927-.193.062-.237.109-.47.163-.7a.742.742,0,0,0,.4-.566c.069-.759.082-1.52.082-2.281a15.7,15.7,0,0,0,.049-2.691.9.9,0,0,0-.188-.435,1.6,1.6,0,0,1,.484-.845A.574.574,0,0,0-410.059,383.86Z" transform="translate(-22406.865 -3848.875)"/>
    <path id="Path_6624" data-name="Path 6624" d="M-406.359,388.686a18.491,18.491,0,0,0,.731-4.773,1.013,1.013,0,0,0-1.594-.714,3.83,3.83,0,0,0-1.7,2.693c-.114.966-.262,2.73.556,3.383a.691.691,0,0,0,.707.084A1,1,0,0,0-406.359,388.686Z" transform="translate(-22401.236 -3849.983)"/>
    <path id="Path_6625" data-name="Path 6625" d="M-413.176,389.712a10.149,10.149,0,0,0-.818-2.105c-.422-.805-1.772-1.07-2.137-.025a13.463,13.463,0,0,0-.539,2.187c.121.03.242.059.361.1,3.466,1.085,2.234,5.112-.39,6.241a14.556,14.556,0,0,0,.111,1.89,1.077,1.077,0,0,0,1.9.553c2.211-2.4,2.2-5.715,1.571-8.744C-413.129,389.767-413.163,389.752-413.176,389.712Z" transform="translate(-22412.545 -3844.281)"/>
    <path id="Path_6626" data-name="Path 6626" d="M-404.036,361.676c-.035.059-.064.121-.1.18a1.063,1.063,0,0,0-1.878.109,11.394,11.394,0,0,0-.754,6.879,21.209,21.209,0,0,0,.054,4.781c.114.825,1.295,1.342,1.833.544a12.286,12.286,0,0,0,1.816-8.139c-.008-.121-.027-.245-.042-.366a15.339,15.339,0,0,0-.334-1.809,14.253,14.253,0,0,1,.749-1.529C-402.217,361.479-403.556,360.851-404.036,361.676Z" transform="translate(-22398.326 -3881.944)"/>
    <path id="Path_6627" data-name="Path 6627" d="M-401.265,382.656c-.049.161-.1.316-.143.477a.9.9,0,0,0-.709.761c-.062.38-.059.751-.091,1.124a10.893,10.893,0,0,0-1.193,7.632c.158.773,1.2,1.307,1.759.529a10.191,10.191,0,0,0,1.912-5.9,21.944,21.944,0,0,0,.563-4.02C-399.128,382.13-400.868,381.359-401.265,382.656Z" transform="translate(-22393.33 -3851.513)"/>
    <path id="Path_6628" data-name="Path 6628" d="M-403.582,392.587a1.026,1.026,0,0,0-.719-.168,1.268,1.268,0,0,0-1.836.381,24.364,24.364,0,0,0-2,4.3,1.1,1.1,0,0,0,.509,1.369.986.986,0,0,0,.734.766,10.551,10.551,0,0,0,.185,2.031,1.12,1.12,0,0,0,2.122.324,12.626,12.626,0,0,0,1.507-5.51,2.026,2.026,0,0,0,.6-1.7c.027-.087.069-.168.1-.257C-402.141,393.343-402.821,392.422-403.582,392.587Z" transform="translate(-22400.061 -3836.514)"/>
    <path id="Path_6629" data-name="Path 6629" d="M-427.849,391.752c-2.7,1.495-3.686,4.482-3.528,7.42,0,.052.042.069.049.116,0,.084-.02.163-.022.25a1.019,1.019,0,0,0,.373.84,8.513,8.513,0,0,0-.38,1.992.957.957,0,0,0,1.487.927,6.6,6.6,0,0,0,2.73-7.084,13.581,13.581,0,0,0,.783-3.531A.96.96,0,0,0-427.849,391.752Z" transform="translate(-22434.158 -3837.365)"/>
    <path id="Path_6630" data-name="Path 6630" d="M-357.772,414.707a14.618,14.618,0,0,1,.111-4.153c-.163-.042-.326-.084-.489-.131l.005-.015h-.057A69.647,69.647,0,0,0-370.677,408c2-.445,3.983-.949,5.965-1.5.037-.173.047-.353.091-.526a.935.935,0,0,1-.309-.885,45.084,45.084,0,0,1,.633-4.5c.257-1.055,2-1.154,2.021.067.01.717.064,1.441.044,2.159a8.1,8.1,0,0,1,.1,2.389c-.032.2-.109.4-.158.6,1.974-.6,3.941-1.24,5.9-1.974,3-1.124,2.71-6.291-.739-6.476-14.467-.776-28.938.447-43.336,1.888-9.8.981-20.4,4.228-30.391,3.2a107.668,107.668,0,0,0,13.488-2.95c4.452-1.109,8.892-2.342,13.335-3.585,5.265-.341,10.444-.536,15.237-.907,18.447-1.426,38.389,1.984,55.655-6.058,2.96-1.379,2.74-5.967-.739-6.481-3.155-.465-6.318-.791-9.481-1.02,0,.205.007.417-.005.62a16.384,16.384,0,0,1,.235,5.984.915.915,0,0,1-1.206.689,1.053,1.053,0,0,1-1.552-.768c-.069-.657-.1-1.314-.1-1.972a10.125,10.125,0,0,1-1.01-1.831,6.619,6.619,0,0,1,.047-2.819c.005-.044.037-.074.049-.114-2.562-.126-5.127-.212-7.692-.225a3.627,3.627,0,0,0-1.016-.2,89.151,89.151,0,0,0-10.874.494c-9.152.474-18.3,1.433-27.406,2.488-2.11.245-4.208.563-6.3.922-2.253.084-4.494.146-6.743.215a10.106,10.106,0,0,1-3.326.62,10.473,10.473,0,0,1-1.248,4.561c-.361.6-1.448.553-1.458-.279a26.928,26.928,0,0,1,.4-4.106c-1.53.128-3.071.232-4.578.479-.608.1-.692-.655-.316-.981-2.142.047-4.3.1-6.461.183a82.946,82.946,0,0,1,10.471-2.076c.383,0,.766-.032,1.149-.042.015-.153.035-.306.04-.46.057-1.868.042-3.731.227-5.591.079-.8,1.273-.638,1.347.1.168,1.69.417,3.783.467,5.878,5.74-.252,11.447-.912,17.147-1.693,12-.46,24.034-.346,35.893-2.651,3.076-.6,3.835-5.653.215-5.9a126.728,126.728,0,0,0-25.1,1.243c-8.665.467-18.553,1.2-27.908,2.5a1.538,1.538,0,0,0-1.51-.511c-3.088.586-6.142,1.265-9.176,2.1a2.072,2.072,0,0,0-.773.4c-9.471,2.031-17.372,4.919-21.358,9.083a43.965,43.965,0,0,0-12.238,5.083c-2.332,1.438-1.258,5.465,1.406,5.717a78.646,78.646,0,0,0,9.261.3,5.756,5.756,0,0,0,.855,1.213c-.091.067-.19.126-.282.193a3.452,3.452,0,0,0,.716,5.866c.613.294,1.231.558,1.853.806-4.237.38-8.455.88-12.646,1.586-3.635.613-4.178,6.478-.136,6.75.316.022.632.027.951.047-4.171.593-3.118,6.777,1.1,6.822a178.876,178.876,0,0,0,23.888-1.658c12.609,2.718,26.378,1.055,38.646-1.819a4.088,4.088,0,0,0,2.619-1.974c9.219-.067,18.452.289,27.629.489a3.5,3.5,0,0,0,1.478-.3,15.015,15.015,0,0,1,.1-1.678A1.174,1.174,0,0,1-357.772,414.707Zm.173-27.241c1.065.012,2.122.042,3.182.069-2.575.292-5.181.482-7.808.6C-360.678,387.928-359.138,387.7-357.6,387.466Zm-69.257,19.257a9.05,9.05,0,0,1-4.539,1.3,9.011,9.011,0,0,1-.225,3.36c-.121.351-.66.568-.88.156a6.6,6.6,0,0,1-.546-3.491,49.288,49.288,0,0,1-5.752-.615c-.358-.052-.25-.561.069-.593,1.932-.18,3.867-.319,5.8-.487a36.928,36.928,0,0,1,.941-5.969c.225-.919,1.66-.647,1.448.284a33.728,33.728,0,0,0-.781,5.515,16.739,16.739,0,0,1,4.309-.341C-426.572,405.9-426.535,406.506-426.856,406.724Z" transform="translate(-22471.553 -3865.065)" fill="#f1a307" style="mix-blend-mode: multiply;isolation: isolate"/>
    <path id="Path_6631" data-name="Path 6631" d="M-440.756,377.982c-.375.326-.291,1.082.316.981,1.507-.247,3.049-.351,4.578-.479a26.928,26.928,0,0,0-.4,4.106c.01.833,1.1.882,1.458.279a10.473,10.473,0,0,0,1.248-4.561,10.106,10.106,0,0,0,3.326-.62c-1.868.059-3.743.131-5.606.18C-437.459,377.91-439.105,377.945-440.756,377.982Z" transform="translate(-22448.26 -3857.825)"/>
    <path id="Path_6632" data-name="Path 6632" d="M-440.756,377.982c-.375.326-.291,1.082.316.981,1.507-.247,3.049-.351,4.578-.479a26.928,26.928,0,0,0-.4,4.106c.01.833,1.1.882,1.458.279a10.473,10.473,0,0,0,1.248-4.561,10.106,10.106,0,0,0,3.326-.62c-1.868.059-3.743.131-5.606.18C-437.459,377.91-439.105,377.945-440.756,377.982Z" transform="translate(-22448.26 -3857.825)" fill="#fcd5a2" style="mix-blend-mode: multiply;isolation: isolate"/>
    <path id="Path_6633" data-name="Path 6633" d="M-438.535,374.89c-.185,1.86-.17,3.724-.227,5.591,0,.153-.025.306-.04.46.694-.017,1.389-.047,2.081-.077-.049-2.1-.3-4.188-.467-5.878C-437.263,374.253-438.456,374.094-438.535,374.89Z" transform="translate(-22445.055 -3862.719)"/>
    <path id="Path_6634" data-name="Path 6634" d="M-438.535,374.89c-.185,1.86-.17,3.724-.227,5.591,0,.153-.025.306-.04.46.694-.017,1.389-.047,2.081-.077-.049-2.1-.3-4.188-.467-5.878C-437.263,374.253-438.456,374.094-438.535,374.89Z" transform="translate(-22445.055 -3862.719)" fill="#fcd5a2" style="mix-blend-mode: multiply;isolation: isolate"/>
    <path id="Path_6635" data-name="Path 6635" d="M-437.606,389.74a16.739,16.739,0,0,0-4.309.341,33.725,33.725,0,0,1,.781-5.515c.213-.931-1.223-1.2-1.448-.284a36.924,36.924,0,0,0-.941,5.969c-1.932.168-3.867.306-5.8.487-.319.032-.427.541-.069.593a49.29,49.29,0,0,0,5.752.615,6.6,6.6,0,0,0,.546,3.491c.22.413.759.2.88-.156a9.011,9.011,0,0,0,.225-3.36,9.05,9.05,0,0,0,4.539-1.3C-437.129,390.4-437.166,389.794-437.606,389.74Z" transform="translate(-22460.959 -3848.961)"/>
    <path id="Path_6636" data-name="Path 6636" d="M-437.606,389.74a16.739,16.739,0,0,0-4.309.341,33.725,33.725,0,0,1,.781-5.515c.213-.931-1.223-1.2-1.448-.284a36.924,36.924,0,0,0-.941,5.969c-1.932.168-3.867.306-5.8.487-.319.032-.427.541-.069.593a49.29,49.29,0,0,0,5.752.615,6.6,6.6,0,0,0,.546,3.491c.22.413.759.2.88-.156a9.011,9.011,0,0,0,.225-3.36,9.05,9.05,0,0,0,4.539-1.3C-437.129,390.4-437.166,389.794-437.606,389.74Z" transform="translate(-22460.959 -3848.961)" fill="#fcd5a2" style="mix-blend-mode: multiply;isolation: isolate"/>
    <path id="Path_6637" data-name="Path 6637" d="M-416.924,386.742c.02-.719-.035-1.443-.044-2.159-.02-1.221-1.764-1.122-2.021-.067a45.094,45.094,0,0,0-.633,4.5.935.935,0,0,0,.309.885c-.044.173-.054.353-.091.526.808-.222,1.613-.457,2.419-.7.049-.2.126-.393.158-.6A8.1,8.1,0,0,0-416.924,386.742Z" transform="translate(-22416.861 -3848.988)"/>
    <path id="Path_6638" data-name="Path 6638" d="M-416.924,386.742c.02-.719-.035-1.443-.044-2.159-.02-1.221-1.764-1.122-2.021-.067a45.094,45.094,0,0,0-.633,4.5.935.935,0,0,0,.309.885c-.044.173-.054.353-.091.526.808-.222,1.613-.457,2.419-.7.049-.2.126-.393.158-.6A8.1,8.1,0,0,0-416.924,386.742Z" transform="translate(-22416.861 -3848.988)" fill="#fcd5a2" style="mix-blend-mode: multiply;isolation: isolate"/>
    <path id="Path_6639" data-name="Path 6639" d="M-412.288,379.126a10.124,10.124,0,0,0,1.01,1.831c0,.657.032,1.315.1,1.972a1.053,1.053,0,0,0,1.552.768.915.915,0,0,0,1.206-.689,16.384,16.384,0,0,0-.235-5.984c.012-.2,0-.415.005-.62-1.181-.087-2.362-.151-3.543-.21-.012.04-.044.069-.049.114A6.618,6.618,0,0,0-412.288,379.126Z" transform="translate(-22406.27 -3860.024)"/>
    <path id="Path_6640" data-name="Path 6640" d="M-412.288,379.126a10.124,10.124,0,0,0,1.01,1.831c0,.657.032,1.315.1,1.972a1.053,1.053,0,0,0,1.552.768.915.915,0,0,0,1.206-.689,16.384,16.384,0,0,0-.235-5.984c.012-.2,0-.415.005-.62-1.181-.087-2.362-.151-3.543-.21-.012.04-.044.069-.049.114A6.618,6.618,0,0,0-412.288,379.126Z" transform="translate(-22406.27 -3860.024)" fill="#fcd5a2" style="mix-blend-mode: multiply;isolation: isolate"/>
    <path id="Path_6641" data-name="Path 6641" d="M-416.2,388.155c-.119-.037-.24-.067-.361-.1a14.619,14.619,0,0,0-.111,4.153,1.175,1.175,0,0,0,.183.507,15.007,15.007,0,0,0-.1,1.678C-413.968,393.268-412.735,389.24-416.2,388.155Z" transform="translate(-22412.652 -3842.571)"/>
    <path id="Path_6642" data-name="Path 6642" d="M-416.2,388.155c-.119-.037-.24-.067-.361-.1a14.619,14.619,0,0,0-.111,4.153,1.175,1.175,0,0,0,.183.507,15.007,15.007,0,0,0-.1,1.678C-413.968,393.268-412.735,389.24-416.2,388.155Z" transform="translate(-22412.652 -3842.571)" fill="#fcd5a2" style="mix-blend-mode: multiply;isolation: isolate"/>
    <path id="Path_6643" data-name="Path 6643" d="M-469.836,370.822a17.706,17.706,0,0,0-6.5,11,11.7,11.7,0,0,0-.358,2.538,20.315,20.315,0,0,0-.5,7.785,2.281,2.281,0,0,0,3.966,1.312c5.675-5.557,7.356-13.167,7.106-20.868A2.383,2.383,0,0,0-469.836,370.822Z" transform="translate(-22501.766 -3868.583)" fill="#1d75bb"/>
    <path id="Path_6644" data-name="Path 6644" d="M-439.747,366.738a6.167,6.167,0,0,0-.907,0,2.851,2.851,0,0,0-3.4-.1c-.089.074-.17.156-.259.232a3.007,3.007,0,0,0-1.609-.447,14.234,14.234,0,0,0-5,1.062,3.047,3.047,0,0,0-4.88.534c-.465.917-.882,1.888-1.277,2.881a2.726,2.726,0,0,0-3.857.388c-6.006,7.669-10.854,15.915-10.38,25.936.114,2.377,2.74,3.027,4.5,2.048a18.837,18.837,0,0,0,3.543-2.552,6.36,6.36,0,0,0,3.768,4.984c-.072.739-.143,1.478-.163,2.206-.057,2.286,2.76,2.955,4.354,2,4.376-2.634,7.365-6.96,9.337-11.961C-435.687,389.751-425.488,368.169-439.747,366.738Zm-23,19.613a24.4,24.4,0,0,1-2.174,3.59,29.734,29.734,0,0,1,2.733-6.79C-462.429,384.219-462.619,385.287-462.75,386.351Zm24.57-8.643a17.648,17.648,0,0,1-5.735,9.256,63.827,63.827,0,0,0,4.067-15.734C-437.4,370.664-437.909,376.547-438.18,377.708Z" transform="translate(-22492.928 -3874.842)" fill="#1d75bb"/>
    <path id="Path_6645" data-name="Path 6645" d="M-481.436,362.684c-1.984,1.295-3.43,2.787-3.7,5.231a12.423,12.423,0,0,0,.215,4.989c-.03.067-.049.136-.079.2-1.035,2.266,1.265,3.78,3.059,3.061a2.183,2.183,0,0,0,3.163-1.591c.161-1.473.371-2.938.593-4.4a2.2,2.2,0,0,0,.235-.062.5.5,0,0,0,0-.956l-.072-.02c.082-.529.161-1.057.242-1.586a2.5,2.5,0,0,0-.116-1.223c.091-.4.185-.793.274-1.193C-477.145,362.963-479.709,361.554-481.436,362.684Z" transform="translate(-22513.426 -3880.48)" fill="#1d75bb"/>
    <path id="Path_6646" data-name="Path 6646" d="M-477.72,386.49c-.3,2-.586,3.983-.8,5.989-.336,3.212,4.559,3.264,4.245.287-.21-2.016-.5-4.013-.8-6.016C-475.281,385.373-477.473,384.867-477.72,386.49Z" transform="translate(-22503.494 -3846.369)" fill="#1d75bb"/>
    <path id="Path_6647" data-name="Path 6647" d="M-472.36,384.483q-.675,3.135-1.352,6.268c-.373,1.727-1.2,3.4.227,4.788a1.168,1.168,0,0,0,1.379.128c1.638-.805,1.406-2.609,1.6-4.215l.758-6.365C-469.548,383.413-471.989,382.76-472.36,384.483Z" transform="translate(-22497.248 -3849.323)" fill="#1d75bb"/>
    <path id="Path_6648" data-name="Path 6648" d="M-468.538,384.2a28.049,28.049,0,0,1-.415,7.286c-.4,2.053-1.843,4.218-.986,6.251a1.257,1.257,0,0,0,1.826.672c1.949-.892,2.2-3.3,2.538-5.228a27.271,27.271,0,0,0-.109-9.083C-465.971,382.335-468.667,382.315-468.538,384.2Z" transform="translate(-22491.242 -3850.335)" fill="#1d75bb"/>
    <path id="Path_6649" data-name="Path 6649" d="M-474.287,391.663c.01.944.017,1.89.025,2.834a1.538,1.538,0,0,0,1.211,1.445,2.334,2.334,0,0,0,.808-.037,1.546,1.546,0,0,0,1.077-1.532q.011-1.42.025-2.839C-471.122,389.511-474.3,389.642-474.287,391.663Z" transform="translate(-22497.246 -3839.598)" fill="#1d75bb"/>
    <path id="Path_6650" data-name="Path 6650" d="M-483.7,389.908c-.185,4.709-1.487,10.592.148,15.1a.823.823,0,0,0,1.574-.027c1.633-4.549.329-10.363.141-15.1A.932.932,0,0,0-483.7,389.908Z" transform="translate(-22512.064 -3841.198)" fill="#1d75bb"/>
  </g>
</svg>
