<svg xmlns="http://www.w3.org/2000/svg" width="202.683" height="196.877" viewBox="0 0 202.683 196.877">
  <g id="Component_54_2" data-name="Component 54 – 2" transform="translate(0 0)">
    <path id="Path_7622" data-name="Path 7622" d="M-171,455.509a1.568,1.568,0,0,1-2.14-1.367c-.223-2.807-.493-5.639-.775-8.479-.636-1.347-1.311-2.663-1.878-4.069a3.082,3.082,0,0,0,.9-2.2c.01-.326,0-.652.005-.98l.026,0-.026-.123c.015-.577,0-1.154.008-1.732l.028.021q-.6-5.6-1.162-11.229a43.313,43.313,0,0,1-1.444-6.2.842.842,0,0,1,.8-1c-.523-6.36-.9-12.729-.906-19.064-2.15-19.859-1.444-40.074,2.93-58.815a2.141,2.141,0,0,1,.872-1.265c.013-.485-.005-.97.01-1.457a2.041,2.041,0,0,1,2.273-1.932c-.441-1.354-.852-2.712-1.306-4.066a.916.916,0,0,1,1.745-.554c5.59,15.941,12.642,32.729,13.2,49.81a.565.565,0,0,1-1.1.167q-1.524-6.626-3.2-13.163a254.323,254.323,0,0,1,4.574,36.811c.01.208.021.426.031.634.187.5.375,1,.557,1.5.567,1.531,1.07,3.091,1.611,4.633a84.9,84.9,0,0,0,3.674,10.939c.2.636.405,1.275.605,1.911.241.975.482,1.947.734,2.917a104.342,104.342,0,0,0,6.347,20.233c5.328,17.558,11.018,34.974,19.713,51.126,2.227,4.141,7.768,2.742,7.83-1.937.659-52.178-9.559-111.559-36.9-157.424-1.047-2.206-2.142-4.348-3.243-6.485,2.75-.739,3.692-4.351,2.024-6.542.8.1,1.6.2,2.44.264,11.372,30.341,24.087,60.556,43.735,86.4q-1.2-6.357-2.614-12.681l-.015,0c-1.529.144-1.706-1.927-.539-2.429-1.768-7.773-3.674-15.518-5.552-23.266l-.013.026a.841.841,0,0,1-1.426.062c-1.036-1.272-1.07-2.773-2.437-3.92a1.355,1.355,0,0,1,1.76-2.06,9.88,9.88,0,0,1,.916.89c-4.046-16.973-7.655-34-8.745-51.4h-12.376c3.9,5.069,7.009,11.47,6.5,17.742-.059.731-1.118,1.011-1.344.216-1.88-6.691-3.281-12.514-7.394-17.958H-155.5a.7.7,0,0,1-1.178.313c-.1-.1-.18-.215-.277-.313h-7.173c2.245,17.445,9.464,34.015,10.859,51.524a.588.588,0,0,1-.731.593,47.156,47.156,0,0,1,3.143,17.411.792.792,0,0,1-1.583.049,61.957,61.957,0,0,0-6.942-24.135c-.7-1.347,1.29-2.665,1.955-1.319.808,1.639,1.557,3.307,2.26,4.992-4.1-16.2-8.887-32.547-10.947-49.115h-18.294c.049,5.187,0,10.374-.441,15.5a.58.58,0,0,1-1.16.021c-.446-5.128-.493-10.323-.441-15.518h-3.758v39.643a.666.666,0,0,1,.236-.044,180.069,180.069,0,0,1,.508-23.879c.069.49.126.983.2,1.475-.046,7.6-.09,15.195-.092,22.791.056.09.144.149.162.269,1.054,6.578,2.435,13.607,2.006,20.282-.033.521-.852.721-.965.144-1.077-5.5-1.4-11.177-2.055-16.775v11.085a298.04,298.04,0,0,0,9.974,39.122.725.725,0,0,1-1.3.6,93.177,93.177,0,0,1-8.674-23.912v26.429c3.3,18.515,8.987,37.727,21.1,50.41C-169.919,462.267-170.527,458.888-171,455.509Zm53.132,33.186a.226.226,0,0,1-.008.452A.226.226,0,0,1-117.869,488.7Zm-9.725-31.865a128.274,128.274,0,0,0-1.739-19.156c-.059-1.847-.164-3.712-.272-5.582,1.357,8.181,2.4,16.385,3.189,24.548.126.069.259.069.372.2a9.189,9.189,0,0,1,1.927,9.687c-.2.516-1.062.528-1.039-.121a13.49,13.49,0,0,0-.929-5.88c.51,5.924.926,11.829,1.167,17.671q-2.667-6.438-5-13.007a3.525,3.525,0,0,0,2.275-3.081c.054-1.385.036-2.753.036-4.123A.924.924,0,0,1-127.594,456.831Zm-5.269,11.8a20.45,20.45,0,0,1-.28,2.4.512.512,0,0,1-.983.018,20.4,20.4,0,0,1-.285-2.37C-134.472,467.67-132.8,467.641-132.864,468.632Zm-14.03-78.866c3.4,9.518,7.057,19.1,6.819,29.346a.317.317,0,0,1-.634,0c-.829-10.174-3.481-19.574-6.693-29.2C-147.512,389.581-147.007,389.45-146.894,389.766Zm.513,24.343c2.471,5.026,4.549,10.569,4.282,16.254a.549.549,0,0,1-1.07.162c-1.429-5.341-2.5-10.59-4.851-15.641C-148.454,413.952-146.835,413.188-146.381,414.109Zm31.814-19.818c-.059.757-.115,1.511-.174,2.27a.881.881,0,0,1-1.76.062l-.174-2.232C-116.786,393-114.464,392.96-114.567,394.291Zm-15.6-56c.164.775.305,1.555.48,2.329q-1.1-1.439-2.214-2.866c-.246-1.939-.6-3.9-1-5.877C-131.986,334.009-131.068,336.144-130.167,338.288Zm-2.288-.649c2.188,7.46,5.375,15.174,6.365,22.9a.8.8,0,0,1-1.457.449c-3.474-6.937-5.079-15.121-7.27-22.542C-135.275,336.906-132.907,336.092-132.456,337.639Zm-36.719-11.162c4.962,9.176,7.119,19.279,8.938,29.461a.44.44,0,0,1-.847.241c-2.86-9.805-4.354-19.92-9.079-29.089C-170.5,326.431-169.531,325.815-169.175,326.477Zm-16.26,45.569a.226.226,0,0,1,.008-.451A.226.226,0,0,1-185.434,372.047Zm.775-6.8a.8.8,0,0,1-1.562-.156c-.136-7.073.4-13.23-2.447-19.969-.523-1.237,1.447-1.86,1.973-.644C-184.041,350.633-182.494,358.727-184.659,365.246Z" transform="translate(190.211 -318.032)" fill="#f1a307"/>
    <path id="Path_7623" data-name="Path 7623" d="M-182.315,328c.749,1.806,1.408,3.658,2.075,5.508q-1.024-3.417-2.1-6.832C-182.331,327.113-182.326,327.554-182.315,328Z" transform="translate(202.531 -304.507)" fill="#fcd5a2"/>
    <path id="Path_7624" data-name="Path 7624" d="M-152.381,357.821c-.744-5.2-1.752-10.372-2.978-15.518C-154.466,347.5-153.461,352.675-152.381,357.821Z" transform="translate(244.769 -280.038)" fill="#fcd5a2"/>
    <path id="Path_7625" data-name="Path 7625" d="M-183.958,355.851a206.453,206.453,0,0,0,4.631,31.973q.15-5.78.038-11.58c-1.121-12.042-2.324-24.076-3.207-36.129A134.529,134.529,0,0,0-183.958,355.851Z" transform="translate(200 -283.463)" fill="#fcd5a2"/>
    <path id="Path_7626" data-name="Path 7626" d="M-157.822,347.937c-.392-5.41-.611-10.808-.729-16.2-1.5-4.169-3.014-8.314-4.536-12.47A248.153,248.153,0,0,0-157.822,347.937Z" transform="translate(232.673 -316.093)" fill="#fcd5a2"/>
    <path id="Path_7627" data-name="Path 7627" d="M-177.961,390.4a2.168,2.168,0,0,1-2.5,2.17c.062,1.316.11,2.635.136,3.953a2.035,2.035,0,0,1,.074.344c.013,1.457,0,2.914,0,4.369a87.555,87.555,0,0,0,3.6-17.686c-.718-10.174-2.378-20.305-4.025-30.457C-179.487,365.506-178.4,377.93-177.961,390.4Z" transform="translate(205.131 -263.154)" fill="#fcd5a2"/>
    <path id="Path_7628" data-name="Path 7628" d="M-180.678,352.328c1.519,5.064,3.207,10.09,4.992,15.085a202.068,202.068,0,0,0-6.411-34.687C-181.7,339.245-181.191,345.784-180.678,352.328Z" transform="translate(202.913 -295.03)" fill="#fcd5a2"/>
    <path id="Path_7629" data-name="Path 7629" d="M-180.237,378.59a298.04,298.04,0,0,1-9.974-39.122v15.805a93.177,93.177,0,0,0,8.674,23.912A.725.725,0,0,0-180.237,378.59Z" transform="translate(190.211 -284.476)" fill="#1b3157"/>
    <path id="Path_7630" data-name="Path 7630" d="M-187.191,354.407c.428-6.675-.952-13.7-2.006-20.282-.018-.121-.105-.18-.162-.269a.8.8,0,0,0-.616-.387.666.666,0,0,0-.236.044v4.264c.654,5.6.977,11.275,2.055,16.775C-188.043,355.128-187.225,354.928-187.191,354.407Z" transform="translate(190.211 -293.869)" fill="#1b3157"/>
    <path id="Path_7631" data-name="Path 7631" d="M-185.233,358.061a43.313,43.313,0,0,0,1.444,6.2q-.354-3.594-.649-7.2A.842.842,0,0,0-185.233,358.061Z" transform="translate(197.983 -256.933)" fill="#1b3157"/>
    <path id="Path_7632" data-name="Path 7632" d="M-180.677,329.66c.005.993.033,1.991.059,2.989q1.074,3.413,2.1,6.832a154,154,0,0,1,5.775,20.8q1.666,6.542,3.2,13.163a.565.565,0,0,0,1.1-.167c-.559-17.08-7.612-33.868-13.2-49.81a.916.916,0,0,0-1.745.554c.454,1.354.865,2.712,1.306,4.066A1.473,1.473,0,0,1-180.677,329.66Z" transform="translate(200.808 -310.484)" fill="#1b3157"/>
    <path id="Path_7633" data-name="Path 7633" d="M-167.8,371.991c.267-5.685-1.811-11.229-4.282-16.254-.454-.921-2.073-.156-1.639.775,2.347,5.051,3.422,10.3,4.851,15.641A.549.549,0,0,0-167.8,371.991Z" transform="translate(215.911 -259.66)" fill="#1b3157"/>
    <path id="Path_7634" data-name="Path 7634" d="M-166.188,375.45c.239-10.244-3.42-19.828-6.819-29.346-.113-.315-.618-.185-.508.141,3.212,9.63,5.865,19.03,6.693,29.2A.317.317,0,0,0-166.188,375.45Z" transform="translate(216.324 -274.371)" fill="#1b3157"/>
    <path id="Path_7635" data-name="Path 7635" d="M-162.559,335.774c.508-6.272-2.6-12.673-6.5-17.742H-171.3c4.112,5.444,5.513,11.267,7.394,17.958C-163.678,336.785-162.618,336.505-162.559,335.774Z" transform="translate(219.819 -318.032)" fill="#1b3157"/>
    <path id="Path_7636" data-name="Path 7636" d="M-161.183,337.918a1.355,1.355,0,0,0-1.76,2.06c1.367,1.147,1.4,2.647,2.437,3.92a.841.841,0,0,0,1.426-.062l.013-.026q-.6-2.5-1.2-5A9.88,9.88,0,0,0-161.183,337.918Z" transform="translate(232.147 -287.411)" fill="#1b3157"/>
    <path id="Path_7637" data-name="Path 7637" d="M-158.558,351.515l.015,0c-.18-.811-.369-1.619-.554-2.427C-160.264,349.589-160.087,351.659-158.558,351.515Z" transform="translate(237.729 -269.42)" fill="#1b3157"/>
    <path id="Path_7638" data-name="Path 7638" d="M-161.313,349.53a.8.8,0,0,0,1.457-.449c-.99-7.724-4.177-15.439-6.365-22.9-.452-1.547-2.819-.734-2.363.806C-166.393,334.409-164.787,342.593-161.313,349.53Z" transform="translate(223.976 -306.575)" fill="#1b3157"/>
    <path id="Path_7639" data-name="Path 7639" d="M-159.61,350.621c.059-.759.115-1.514.174-2.27.1-1.331-2.219-1.288-2.109.1l.174,2.232A.881.881,0,0,0-159.61,350.621Z" transform="translate(235.08 -272.091)" fill="#1b3157"/>
    <path id="Path_7640" data-name="Path 7640" d="M-173.274,351.2a.44.44,0,0,0,.847-.241c-1.819-10.182-3.976-20.285-8.938-29.461-.357-.662-1.326-.046-.988.613C-177.627,331.279-176.134,341.395-173.274,351.2Z" transform="translate(202.402 -313.052)" fill="#1b3157"/>
    <path id="Path_7641" data-name="Path 7641" d="M-172.133,362.154c-.664-1.347-2.655-.028-1.955,1.319a61.957,61.957,0,0,1,6.942,24.135.792.792,0,0,0,1.583-.049,47.156,47.156,0,0,0-3.143-17.411.588.588,0,0,0,.731-.593c-1.4-17.509-8.615-34.079-10.859-51.524h-1.986c2.06,16.567,6.85,32.919,10.947,49.115C-170.575,365.461-171.324,363.794-172.133,362.154Z" transform="translate(204.913 -318.032)" fill="#1b3157"/>
    <path id="Path_7642" data-name="Path 7642" d="M-189.557,329.385c2.845,6.739,2.311,12.9,2.447,19.969a.8.8,0,0,0,1.562.156c2.165-6.519.618-14.613-2.037-20.77C-188.11,327.525-190.08,328.148-189.557,329.385Z" transform="translate(191.098 -302.297)" fill="#1b3157"/>
    <path id="Path_7643" data-name="Path 7643" d="M-188.217,339.362a.226.226,0,0,0,.008-.451A.226.226,0,0,0-188.217,339.362Z" transform="translate(192.994 -285.348)" fill="#1b3157"/>
    <path id="Path_7644" data-name="Path 7644" d="M-169.142,357.091a154,154,0,0,0-5.775-20.8c-.667-1.85-1.326-3.7-2.075-5.508-.01-.441-.015-.882-.026-1.324-.026-1-.054-2-.059-2.989a1.473,1.473,0,0,0-1.406-1.578,2.041,2.041,0,0,0-2.273,1.932c-.015.487,0,.972-.01,1.457a2.141,2.141,0,0,0-.872,1.265c-4.374,18.74-5.08,38.956-2.93,58.815.01,6.334.382,12.7.906,19.064q.3,3.6.649,7.2.554,5.634,1.162,11.229l.033.321c.021.205.044.41.064.616q.439,4.087.841,8.14c.282,2.84.552,5.672.775,8.479a1.568,1.568,0,0,0,2.14,1.367c.475,3.379,1.083,6.757,1.893,10.159.026.105.041.213.067.318a2.055,2.055,0,0,0,3.353,1.242,2.112,2.112,0,0,0,.623-.652,62,62,0,0,0,3.078-7.193c6.047-16.921,5.436-36.642,4.446-54.115-.01-.208-.021-.426-.031-.634A254.323,254.323,0,0,0-169.142,357.091Zm-7.394,54.569a206.453,206.453,0,0,1-4.631-31.973A134.529,134.529,0,0,1-179.7,363.95c.883,12.052,2.086,24.087,3.207,36.129Q-176.378,405.878-176.535,411.659Zm7.635-20.3c.908,11.439,1.5,24.11.169,36.334a87.555,87.555,0,0,1-3.6,17.686c.005-1.455.015-2.912,0-4.369a2.035,2.035,0,0,0-.074-.344c-.026-1.319-.074-2.637-.136-3.953a2.168,2.168,0,0,0,2.5-2.17c-.439-12.465-1.526-24.89-2.719-37.306-.1-1.054-.2-2.109-.3-3.163-.372-9.815-1.144-19.651-1.916-29.474-.513-6.544-1.026-13.084-1.419-19.6a202.068,202.068,0,0,1,6.411,34.687C-169.56,383.594-169.209,387.493-168.9,391.357Z" transform="translate(197.208 -307.299)" fill="#1b3157"/>
    <path id="Path_7645" data-name="Path 7645" d="M-161.281,333.681c.054.149.11.3.164.449,5.8,15.108,11.4,30.51,15.123,46.167-1.116-6.5-2.081-13.035-2.848-19.569q1.739,5.418,3.435,10.823c1.637,10.6,3.345,21.183,5.4,31.708,1.934,9.923,4.4,19.731,6.8,29.515-.046.423-.113.836-.169,1.254-3.615-12.373-6.9-25.192-9.638-38.214.28,1.945.575,3.887.775,5.836a45.483,45.483,0,0,1,1.765,9.441,4.473,4.473,0,0,1-1.09,3.22c.005,1.478.031,2.955-.021,4.438-.123,3.494-5.08,4.128-6.9,1.693-1.775-2.378-3.381-4.846-4.913-7.352-.072-.092-.133-.192-.205-.285.667,3.517,1.3,7.042,1.832,10.58,4.507,29.887,6.529,64.92,26.383,89.345a5.644,5.644,0,0,0,10.015-2.414c4.826-25.81.074-50.836-5.913-75.754a68.931,68.931,0,0,0,.7-8.063c3.135,16.265,7.129,32.044,14.341,46.021,2.332,4.52,8.481,5.128,10.885.215,1.278-2.612,2.409-5.264,3.453-7.94.305.482.58.982.9,1.457,3.607,5.382,10.6,1.152,10.654-4.176q.1-9.108.185-18.219c1,1.97,2.055,3.922,3.258,5.839,2.137,3.4,7.317,2.832,9.454-.169,2.381,4.433,10.667,3.155,10.977-2.252.208-3.646.357-7.291.482-10.936a4.789,4.789,0,0,0,3.3-3.153,230.506,230.506,0,0,0,7.568-30.318c-.426,8.743-.965,17.393-1.47,25.834-.459,7.63,11.344,9.5,11.785,1.839,2.124-36.742,4.587-76.09-3.417-112.508H-64.459c-.372,3.017-.739,6.034-1.031,9.053-.654-3.058-1.334-6.067-2.019-9.053H-88.382c-.434,7.1-.875,14.2-1.208,21.3-.775-7.206-1.414-14.312-1.832-21.3h-12.619c-.929,23.7-2.155,47.373-1.937,71.118.174,18.974.352,40.957,6.7,59.918-.531,2.045-1.211,4.046-1.86,6.054-16.647-43.419-12.66-96.677-41.891-133.737-.21-1.121-.459-2.234-.675-3.353h-17.47C-161.342,323.227-161.4,328.442-161.281,333.681Zm83.145,52.142A395.985,395.985,0,0,0-72.6,428.2c-.213.9-.5,1.76-.731,2.645C-78.436,417.008-79.005,401.636-78.135,385.823Zm-50.144,68.586c2.571,12.863,4.21,25.8,3.592,39.017-5.921-11.072-9.538-23.394-12.163-36.011,2.463,1.362,5.947,1.111,7.583-1.365C-128.91,455.515-128.61,454.955-128.279,454.409Zm-1.188-75.615c-2.468-7.65-5.182-15.257-7.809-22.678q-.354-2.3-.716-4.589A164.089,164.089,0,0,1-129.467,378.794Z" transform="translate(235.403 -318.032)" fill="#b7d9fa" style="mix-blend-mode: multiply;isolation: isolate"/>
    <path id="Path_7646" data-name="Path 7646" d="M-155.655,374.432c1.878,7.747,3.784,15.492,5.552,23.266a1.394,1.394,0,0,1,.713-.113l2.224.21c1.262.118.983,2.011-.172,2.122l-2.211.208q1.408,6.322,2.614,12.681c.072.092.133.192.205.285,1.532,2.506,3.137,4.974,4.913,7.352,1.819,2.435,6.775,1.8,6.9-1.693.051-1.483.026-2.96.021-4.438a4.473,4.473,0,0,0,1.09-3.22,45.483,45.483,0,0,0-1.765-9.441c-.2-1.95-.5-3.892-.775-5.836-1.08-5.146-2.086-10.321-2.978-15.518-3.722-15.657-9.325-31.059-15.123-46.167-.054-.151-.11-.3-.164-.449.118,5.387.336,10.785.729,16.2a248.153,248.153,0,0,1-5.264-28.666c-.39-1.06-.772-2.122-1.157-3.179H-165.6c1.09,17.4,4.7,34.425,8.745,51.4C-155.581,370.82-154.57,372.749-155.655,374.432Z" transform="translate(228.736 -318.032)" fill="#fcd5a2"/>
    <path id="Path_7647" data-name="Path 7647" d="M-155.655,374.432c1.878,7.747,3.784,15.492,5.552,23.266a1.394,1.394,0,0,1,.713-.113l2.224.21c1.262.118.983,2.011-.172,2.122l-2.211.208q1.408,6.322,2.614,12.681c.072.092.133.192.205.285,1.532,2.506,3.137,4.974,4.913,7.352,1.819,2.435,6.775,1.8,6.9-1.693.051-1.483.026-2.96.021-4.438a4.473,4.473,0,0,0,1.09-3.22,45.483,45.483,0,0,0-1.765-9.441c-.2-1.95-.5-3.892-.775-5.836-1.08-5.146-2.086-10.321-2.978-15.518-3.722-15.657-9.325-31.059-15.123-46.167-.054-.151-.11-.3-.164-.449.118,5.387.336,10.785.729,16.2a248.153,248.153,0,0,1-5.264-28.666c-.39-1.06-.772-2.122-1.157-3.179H-165.6c1.09,17.4,4.7,34.425,8.745,51.4C-155.581,370.82-154.57,372.749-155.655,374.432Z" transform="translate(228.736 -318.032)" fill="#b7d9fa" style="mix-blend-mode: multiply;isolation: isolate"/>
    <path id="Path_7648" data-name="Path 7648" d="M-162.192,338.067q.6,2.5,1.2,5C-159.906,341.387-160.917,339.457-162.192,338.067Z" transform="translate(234.073 -286.669)" fill="#1b3157"/>
    <path id="Path_7649" data-name="Path 7649" d="M-162.192,338.067q.6,2.5,1.2,5C-159.906,341.387-160.917,339.457-162.192,338.067Z" transform="translate(234.073 -286.669)" fill="#b7d9fa" style="mix-blend-mode: multiply;isolation: isolate"/>
    <path id="Path_7650" data-name="Path 7650" d="M-156.623,349.257l-2.224-.21a1.394,1.394,0,0,0-.713.113c.185.808.375,1.616.554,2.427l2.211-.208C-155.64,351.268-155.36,349.375-156.623,349.257Z" transform="translate(238.193 -269.494)" fill="#1b3157"/>
    <path id="Path_7651" data-name="Path 7651" d="M-156.623,349.257l-2.224-.21a1.394,1.394,0,0,0-.713.113c.185.808.375,1.616.554,2.427l2.211-.208C-155.64,351.268-155.36,349.375-156.623,349.257Z" transform="translate(238.193 -269.494)" fill="#b7d9fa" style="mix-blend-mode: multiply;isolation: isolate"/>
  </g>
</svg>
