<svg xmlns="http://www.w3.org/2000/svg" width="33" height="31.849" viewBox="0 0 33 31.849">
  <g id="Social_Network_Facebook" data-name="Social Network/Facebook" transform="translate(0)">
    <rect id="Area" width="33" height="31.849" transform="translate(0)" fill="none"/>
    <path id="Facebook" d="M16.5,31.849h0l-13.2,0A3.247,3.247,0,0,1,0,28.663V3.184A3.247,3.247,0,0,1,3.3,0H29.7A3.247,3.247,0,0,1,33,3.184V28.663a3.247,3.247,0,0,1-3.3,3.184H21.45V19.858h4.229l.679-4.5H21.45V13.44c0-1.852.62-2.574,2.21-2.574H26.4v-4.3l-.052-.006a25.014,25.014,0,0,0-3.372-.19,6.612,6.612,0,0,0-4.745,1.575,6.664,6.664,0,0,0-1.731,5v2.415H11.55v4.5H16.5V31.849Z" transform="translate(0)" fill="#2a285f"/>
  </g>
</svg>
