<svg xmlns="http://www.w3.org/2000/svg" width="183.697" height="55.947" viewBox="0 0 183.697 55.947">
  <g id="Group_163" data-name="Group 163" transform="translate(210.477 -0.141)">
    <g id="Group_161" data-name="Group 161">
      <path id="Path_7480" data-name="Path 7480" d="M-146.154.141h17.18V5.228H-140V11.45h9.419v5.087H-140V26.973h-6.155Z" fill="#fff"/>
      <path id="Path_7481" data-name="Path 7481" d="M-124.781,20.626V.179h6.14V20.873c0,1.3.609,1.71,1.111,1.71a2.717,2.717,0,0,0,.751-.082l.733,4.463a8.064,8.064,0,0,1-3.082.5C-123.341,27.467-124.781,24.759-124.781,20.626Z" fill="#fff"/>
      <path id="Path_7482" data-name="Path 7482" d="M-113.033,19.228V6.548h6.14v11.9c0,2.939.8,3.858,2.573,3.858,1.543,0,2.486-.638,3.684-2.245V6.548h6.14V26.973H-99.5l-.442-2.833h-.153a8.136,8.136,0,0,1-6.505,3.327C-111.111,27.467-113.033,24.334-113.033,19.228Z" fill="#fff"/>
      <path id="Path_7483" data-name="Path 7483" d="M-84.863,16.341l-5.99-9.793h6.582l1.842,3.3c.564,1.138,1.179,2.345,1.759,3.483h.167c.442-1.138.972-2.345,1.414-3.483l1.415-3.3h6.361L-77.3,17.034l6.368,9.939h-6.583L-79.555,23.6c-.649-1.168-1.278-2.4-1.942-3.556h-.166c-.526,1.153-1.071,2.354-1.6,3.556l-1.611,3.374h-6.36Z" fill="#fff"/>
      <path id="Path_7484" data-name="Path 7484" d="M-67.844,19.228V6.548h6.14v11.9c0,2.939.8,3.858,2.573,3.858,1.543,0,2.486-.638,3.684-2.245V6.548h6.14V26.973h-5.008l-.443-2.833h-.153a8.136,8.136,0,0,1-6.505,3.327C-65.922,27.467-67.844,24.334-67.844,19.228Z" fill="#fff"/>
      <path id="Path_7485" data-name="Path 7485" d="M-45.758,24.614l2.763-3.769a9.046,9.046,0,0,0,5.346,2.145c1.827,0,2.617-.687,2.617-1.757,0-1.346-2.054-1.955-4.186-2.779-2.54-.968-5.483-2.63-5.483-6.006,0-3.8,3.135-6.394,7.917-6.394a11.9,11.9,0,0,1,7.3,2.586l-2.747,3.635a7.77,7.77,0,0,0-4.363-1.744c-1.587,0-2.367.612-2.367,1.631,0,1.3,1.94,1.8,4.087,2.571,2.624.956,5.582,2.412,5.582,6.146,0,3.7-2.959,6.588-8.512,6.588A13.559,13.559,0,0,1-45.758,24.614Z" fill="#fff"/>
    </g>
    <g id="Group_162" data-name="Group 162">
      <path id="Path_7486" data-name="Path 7486" d="M-146.154,51.138c0-3.032,2.55-4.611,8.445-5.234-.047-1.521-.667-2.789-2.608-2.789a8,8,0,0,0-4.036,1.395l-1.239-2.214A11.307,11.307,0,0,1-139.7,40.44c3.59,0,5.356,2.178,5.356,6.121v8.381h-2.76l-.258-1.568h-.093a6.99,6.99,0,0,1-4.456,1.914A4,4,0,0,1-146.154,51.138Zm8.445.011V47.968c-3.9.484-5.193,1.486-5.193,2.916,0,1.251.865,1.8,2.07,1.8A4.56,4.56,0,0,0-137.709,51.149Z" fill="#fff"/>
      <path id="Path_7487" data-name="Path 7487" d="M-131.244,47.875a7.046,7.046,0,0,1,7.2-7.435,6.2,6.2,0,0,1,4.2,1.591l-1.638,2.155a3.548,3.548,0,0,0-2.386-1.037c-2.315,0-3.918,1.89-3.918,4.726s1.579,4.7,3.812,4.7A4.758,4.758,0,0,0-121,51.357l1.369,2.19a7.151,7.151,0,0,1-4.69,1.741C-128.238,55.288-131.244,52.567-131.244,47.875Z" fill="#fff"/>
      <path id="Path_7488" data-name="Path 7488" d="M-117.854,51.138c0-3.032,2.55-4.611,8.444-5.234-.046-1.521-.666-2.789-2.608-2.789a8,8,0,0,0-4.035,1.395l-1.239-2.214A11.3,11.3,0,0,1-111.4,40.44c3.59,0,5.356,2.178,5.356,6.121v8.381H-108.8l-.258-1.568h-.093a6.99,6.99,0,0,1-4.456,1.914A4,4,0,0,1-117.854,51.138Zm8.444.011V47.968c-3.894.484-5.193,1.486-5.193,2.916,0,1.251.866,1.8,2.071,1.8A4.558,4.558,0,0,0-109.41,51.149Z" fill="#fff"/>
      <path id="Path_7489" data-name="Path 7489" d="M-102.874,47.875c0-4.611,2.936-7.435,6.082-7.435A5.322,5.322,0,0,1-93.026,42l-.129-2.283V34.584h3.368V54.942h-2.76l-.257-1.533H-92.9a6.051,6.051,0,0,1-4.081,1.879C-100.558,55.288-102.874,52.544-102.874,47.875Zm9.719,3.078V44.359a4.275,4.275,0,0,0-2.923-1.175c-1.825,0-3.334,1.706-3.334,4.657,0,3.078,1.193,4.7,3.263,4.7A3.809,3.809,0,0,0-93.155,50.953Z" fill="#fff"/>
      <path id="Path_7490" data-name="Path 7490" d="M-86.456,47.875c0-4.6,3.24-7.435,6.619-7.435,3.884,0,5.931,2.766,5.931,6.72a8.466,8.466,0,0,1-.147,1.614H-83.17a4.062,4.062,0,0,0,4.234,3.943A6.189,6.189,0,0,0-75.6,51.691l1.146,2.063a9,9,0,0,1-4.924,1.534C-83.345,55.288-86.456,52.544-86.456,47.875Zm9.637-1.36c0-2.178-.983-3.5-2.948-3.5-1.672,0-3.145,1.233-3.438,3.5Z" fill="#fff"/>
      <path id="Path_7491" data-name="Path 7491" d="M-70.686,40.786h2.76l.257,1.931h.094a6.2,6.2,0,0,1,4.409-2.277A3.872,3.872,0,0,1-59.2,42.976c1.375-1.441,2.8-2.536,4.621-2.536,3.028,0,4.431,2.052,4.431,5.625v8.877h-3.368v-8.45c0-2.329-.7-3.205-2.21-3.205a4.447,4.447,0,0,0-3.005,1.764v9.891H-62.1v-8.45c0-2.329-.7-3.205-2.21-3.205a4.5,4.5,0,0,0-3.006,1.764v9.891h-3.368Z" fill="#fff"/>
      <path id="Path_7492" data-name="Path 7492" d="M-46.427,36.428a1.913,1.913,0,0,1,2.082-1.879,1.913,1.913,0,0,1,2.082,1.879,1.927,1.927,0,0,1-2.082,1.879A1.927,1.927,0,0,1-46.427,36.428Zm.386,4.358h3.368V54.942h-3.368Z" fill="#fff"/>
      <path id="Path_7493" data-name="Path 7493" d="M-39.33,47.875c0-4.6,3.24-7.435,6.62-7.435,3.883,0,5.93,2.766,5.93,6.72a8.385,8.385,0,0,1-.147,1.614h-9.116a4.06,4.06,0,0,0,4.233,3.943,6.187,6.187,0,0,0,3.334-1.026l1.146,2.063a9,9,0,0,1-4.923,1.534C-36.219,55.288-39.33,52.544-39.33,47.875Zm9.638-1.36c0-2.178-.983-3.5-2.948-3.5-1.672,0-3.146,1.233-3.438,3.5Z" fill="#fff"/>
    </g>
    <path id="Path_7494" data-name="Path 7494" d="M-197.2,21.33s32.929-16.246,32.929,1.846c0,0-32.959,2.383-33.1,17.9-.134,14.143-.024,14.97,0,15.011h-13.1V8.689a8.51,8.51,0,0,1,8.51-8.51h47.394V13.518c-11.155-16.246-42.588-.984-42.588-.984Z" fill="#fff"/>
    <path id="Path_7495" data-name="Path 7495" d="M-164.3,32.4V47.746c-7.357,7.55-19.444,5.755-19.444-3.238C-183.745,32.4-164.3,32.4-164.3,32.4Z" fill="#fff"/>
  </g>
</svg>
