<svg xmlns="http://www.w3.org/2000/svg" width="33.333" height="32.182" viewBox="0 0 33.333 32.182">
  <g id="Social_Network_Instagram" data-name="Social Network/Instagram" transform="translate(0)">
    <rect id="Area" width="33" height="31.849" transform="translate(0)" fill="none"/>
    <path id="Instagram" d="M23.333,0a9.832,9.832,0,0,1,10,9.655V22.527a9.832,9.832,0,0,1-10,9.655H10A9.832,9.832,0,0,1,0,22.527V9.655A9.832,9.832,0,0,1,10,0ZM16.667,8.046a8.2,8.2,0,0,0-8.333,8.046,8.2,8.2,0,0,0,8.333,8.046A8.2,8.2,0,0,0,25,16.091,8.2,8.2,0,0,0,16.667,8.046Zm10-3.218A1.762,1.762,0,0,0,25,6.436a1.668,1.668,0,0,0,3.333,0A1.762,1.762,0,0,0,26.667,4.827Zm-10,6.436a4.916,4.916,0,0,0-5,4.827,4.916,4.916,0,0,0,5,4.827,4.916,4.916,0,0,0,5-4.827A4.916,4.916,0,0,0,16.667,11.264Z" transform="translate(0)" fill="#2a285f" fill-rule="evenodd"/>
  </g>
</svg>
