<svg xmlns="http://www.w3.org/2000/svg" width="184.474" height="57" viewBox="0 0 184.474 57">
  <g id="Group_1" data-name="Group 1" transform="translate(419.697 -189.681)">
    <g id="Group_167" data-name="Group 167">
      <path id="Path_7513" data-name="Path 7513" d="M-355.1,189.681h17.253v5.183h-11.072V201.2h9.459v5.183h-9.459v10.633H-355.1Z" fill="#2a285f"/>
      <path id="Path_7514" data-name="Path 7514" d="M-333.639,210.552V189.72h6.166V210.8c0,1.323.612,1.742,1.116,1.742a2.705,2.705,0,0,0,.754-.083l.736,4.546a7.977,7.977,0,0,1-3.1.513C-332.192,217.521-333.639,214.762-333.639,210.552Z" fill="#2a285f"/>
      <path id="Path_7515" data-name="Path 7515" d="M-321.841,209.127V196.209h6.166v12.128c0,2.995.8,3.932,2.585,3.932,1.549,0,2.5-.651,3.7-2.288V196.209h6.166v20.809h-5.03l-.445-2.887h-.153c-1.737,2.073-3.7,3.39-6.533,3.39C-319.911,217.521-321.841,214.329-321.841,209.127Z" fill="#2a285f"/>
      <path id="Path_7516" data-name="Path 7516" d="M-293.552,206.186l-6.015-9.977h6.61l1.85,3.364c.567,1.159,1.183,2.389,1.766,3.548h.168c.444-1.159.976-2.389,1.42-3.548l1.421-3.364h6.388l-6.016,10.683,6.4,10.126h-6.611l-2.046-3.438c-.652-1.189-1.283-2.448-1.95-3.622h-.167c-.528,1.174-1.076,2.4-1.6,3.622l-1.617,3.438h-6.388Z" fill="#2a285f"/>
      <path id="Path_7517" data-name="Path 7517" d="M-276.46,209.127V196.209h6.165v12.128c0,2.995.805,3.932,2.585,3.932,1.549,0,2.5-.651,3.7-2.288V196.209h6.166v20.809h-5.029l-.445-2.887h-.153c-1.737,2.073-3.7,3.39-6.533,3.39C-274.53,217.521-276.46,214.329-276.46,209.127Z" fill="#2a285f"/>
      <path id="Path_7518" data-name="Path 7518" d="M-254.281,214.615l2.775-3.841a9.008,9.008,0,0,0,5.368,2.186c1.835,0,2.629-.7,2.629-1.79,0-1.371-2.063-1.992-4.2-2.831-2.551-.987-5.507-2.68-5.507-6.119,0-3.875,3.149-6.515,7.951-6.515a11.838,11.838,0,0,1,7.333,2.635l-2.759,3.7a7.738,7.738,0,0,0-4.381-1.777c-1.594,0-2.378.624-2.378,1.662,0,1.327,1.949,1.835,4.1,2.62,2.636.974,5.606,2.457,5.606,6.262,0,3.765-2.971,6.711-8.548,6.711A13.5,13.5,0,0,1-254.281,214.615Z" fill="#2a285f"/>
    </g>
    <g id="Group_168" data-name="Group 168">
      <path id="Path_7519" data-name="Path 7519" d="M-355.1,241.638c0-3.089,2.561-4.7,8.48-5.333-.046-1.55-.669-2.842-2.619-2.842a7.964,7.964,0,0,0-4.052,1.422l-1.244-2.256a11.243,11.243,0,0,1,5.919-1.891c3.605,0,5.379,2.22,5.379,6.237v8.538h-2.772l-.258-1.6h-.094a6.972,6.972,0,0,1-4.475,1.95A4.042,4.042,0,0,1-355.1,241.638Zm8.48.011v-3.241c-3.91.493-5.214,1.515-5.214,2.971,0,1.275.869,1.832,2.079,1.832A4.548,4.548,0,0,0-346.622,241.649Z" fill="#1d75bb"/>
      <path id="Path_7520" data-name="Path 7520" d="M-340.129,238.314c0-4.8,3.395-7.576,7.235-7.576a6.17,6.17,0,0,1,4.217,1.621l-1.645,2.2a3.534,3.534,0,0,0-2.4-1.056c-2.325,0-3.934,1.925-3.934,4.815s1.586,4.792,3.828,4.792a4.745,4.745,0,0,0,2.984-1.245l1.374,2.231a7.116,7.116,0,0,1-4.71,1.774C-337.11,245.866-340.129,243.094-340.129,238.314Z" fill="#1d75bb"/>
      <path id="Path_7521" data-name="Path 7521" d="M-326.682,241.638c0-3.089,2.561-4.7,8.48-5.333-.047-1.55-.669-2.842-2.619-2.842a7.957,7.957,0,0,0-4.052,1.422l-1.245-2.256a11.244,11.244,0,0,1,5.92-1.891c3.605,0,5.378,2.22,5.378,6.237v8.538h-2.771l-.259-1.6h-.093a6.975,6.975,0,0,1-4.475,1.95A4.041,4.041,0,0,1-326.682,241.638Zm8.48.011v-3.241c-3.911.493-5.215,1.515-5.215,2.971,0,1.275.869,1.832,2.079,1.832A4.548,4.548,0,0,0-318.2,241.649Z" fill="#1d75bb"/>
      <path id="Path_7522" data-name="Path 7522" d="M-311.639,238.314c0-4.7,2.948-7.576,6.108-7.576a5.307,5.307,0,0,1,3.782,1.586l-.13-2.326v-5.226h3.383v20.741h-2.772l-.258-1.562h-.094a6.041,6.041,0,0,1-4.1,1.915C-309.313,245.866-311.639,243.071-311.639,238.314Zm9.76,3.135v-6.718a4.26,4.26,0,0,0-2.935-1.2c-1.833,0-3.348,1.738-3.348,4.744,0,3.136,1.2,4.793,3.277,4.793A3.808,3.808,0,0,0-301.879,241.449Z" fill="#1d75bb"/>
      <path id="Path_7523" data-name="Path 7523" d="M-295.151,238.314c0-4.687,3.253-7.576,6.647-7.576,3.9,0,5.955,2.819,5.955,6.847a8.687,8.687,0,0,1-.147,1.644h-9.155a4.1,4.1,0,0,0,4.251,4.018,6.151,6.151,0,0,0,3.348-1.046l1.151,2.1a8.941,8.941,0,0,1-4.944,1.563C-292.027,245.866-295.151,243.071-295.151,238.314Zm9.678-1.386c0-2.22-.987-3.57-2.96-3.57-1.68,0-3.159,1.256-3.453,3.57Z" fill="#1d75bb"/>
      <path id="Path_7524" data-name="Path 7524" d="M-279.314,231.091h2.771l.259,1.967h.094a6.2,6.2,0,0,1,4.427-2.32,3.889,3.889,0,0,1,3.982,2.584c1.38-1.468,2.807-2.584,4.639-2.584,3.042,0,4.451,2.091,4.451,5.732v9.043h-3.382V236.9c0-2.373-.705-3.266-2.22-3.266-.916,0-1.9.588-3.018,1.8v10.077h-3.383V236.9c0-2.373-.7-3.266-2.219-3.266a4.5,4.5,0,0,0-3.019,1.8v10.077h-3.382Z" fill="#1d75bb"/>
      <path id="Path_7525" data-name="Path 7525" d="M-254.952,226.651a1.932,1.932,0,0,1,2.09-1.914,1.932,1.932,0,0,1,2.091,1.914,1.947,1.947,0,0,1-2.091,1.915A1.946,1.946,0,0,1-254.952,226.651Zm.387,4.44h3.383v14.422h-3.383Z" fill="#1d75bb"/>
      <path id="Path_7526" data-name="Path 7526" d="M-247.826,238.314c0-4.687,3.254-7.576,6.648-7.576,3.9,0,5.955,2.819,5.955,6.847a8.69,8.69,0,0,1-.147,1.644h-9.155a4.1,4.1,0,0,0,4.251,4.018,6.151,6.151,0,0,0,3.348-1.046l1.151,2.1a8.944,8.944,0,0,1-4.944,1.563C-244.7,245.866-247.826,243.071-247.826,238.314Zm9.679-1.386c0-2.22-.987-3.57-2.96-3.57-1.68,0-3.159,1.256-3.453,3.57Z" fill="#1d75bb"/>
    </g>
    <path id="Path_7527" data-name="Path 7527" d="M-406.325,202.307s31.566-15.549,42.768,1V189.72h.006v56.961h-42.99c-.023-.042-.135-.885,0-15.294.146-15.81,33.244-18.237,33.244-18.237,0-18.433-33.068-1.882-33.068-1.882Zm33,35.875V222.55s-19.527,0-19.527,12.333C-392.853,244.046-380.714,245.874-373.326,238.182Z" fill="none"/>
    <path id="Path_7528" data-name="Path 7528" d="M-406.365,211.268s33.068-16.551,33.068,1.882c0,0-33.1,2.427-33.244,18.237-.135,14.409-.023,15.252,0,15.294H-419.7V198.228a8.508,8.508,0,0,1,8.508-8.508h47.632v13.59c-11.2-16.552-42.768-1-42.768-1Z" fill="#1c75bb"/>
    <path id="Path_7529" data-name="Path 7529" d="M-373.326,222.55v15.632c-7.388,7.692-19.527,5.864-19.527-3.3C-392.853,222.55-373.326,222.55-373.326,222.55Z" fill="#2a285f"/>
  </g>
</svg>
