<svg id="Send" xmlns="http://www.w3.org/2000/svg" width="27" height="27" viewBox="0 0 27 27">
  <rect id="Area" width="27" height="27" fill="none"/>
  <path id="Send-2" data-name="Send" d="M23.878.084A.377.377,0,0,0,23.49.031L.208,10.2A.329.329,0,0,0,.2,10.8l4.6,1.95c.121.056,9.6-4.638,9.6-4.638L8.583,14.24A.667.667,0,0,0,8.4,14.7V19.24a.667.667,0,0,0,1.142.467l3.046-3.1,4.8,2.283a.38.38,0,0,0,.3,0,.346.346,0,0,0,.2-.208L23.983.438A.324.324,0,0,0,23.878.084Z" transform="translate(1.333 2.667)" fill="#2a285f"/>
</svg>
