<svg id="Social_Network_Twitter" data-name="Social Network/Twitter" xmlns="http://www.w3.org/2000/svg" width="33" height="31.849" viewBox="0 0 33 31.849">
  <rect id="Area" width="33" height="31.849" fill="none"/>
  <path id="Twitter" d="M29.7,31.849H3.3A3.247,3.247,0,0,1,0,28.664V3.185A3.247,3.247,0,0,1,3.3,0H29.7A3.247,3.247,0,0,1,33,3.185v25.48A3.247,3.247,0,0,1,29.7,31.849ZM4.951,22.7v0a14.169,14.169,0,0,0,7.264,1.985,13.315,13.315,0,0,0,10.011-4.1A12.532,12.532,0,0,0,25.7,12.1c0-.191,0-.383-.013-.572A9.288,9.288,0,0,0,28.05,9.24a10.031,10.031,0,0,1-2.722.7A4.492,4.492,0,0,0,27.412,7.49,9.931,9.931,0,0,1,24.4,8.563a4.924,4.924,0,0,0-3.459-1.4A4.594,4.594,0,0,0,16.2,11.588a4.179,4.179,0,0,0,.122,1.008A13.848,13.848,0,0,1,6.558,7.974a4.208,4.208,0,0,0-.64,2.224,4.347,4.347,0,0,0,2.107,3.68,5.009,5.009,0,0,1-2.146-.553v.056a4.519,4.519,0,0,0,3.8,4.335,5.106,5.106,0,0,1-2.141.076,4.71,4.71,0,0,0,4.427,3.071,9.881,9.881,0,0,1-5.885,1.895A10.209,10.209,0,0,1,4.951,22.7Z" fill="#2a285f"/>
</svg>
